<?xml version="1.0" encoding="UTF-8" standalone="no"?>

<svg
   width="210mm"
   height="297mm"
   viewBox="0 0 210 297"
   version="1.1"
   id="svg1"
   xml:space="preserve"
   inkscape:export-filename="logo.svg"
   inkscape:export-xdpi="96"
   inkscape:export-ydpi="96"
   xmlns:inkscape="http://www.inkscape.org/namespaces/inkscape"
   xmlns:sodipodi="http://sodipodi.sourceforge.net/DTD/sodipodi-0.dtd"
   xmlns="http://www.w3.org/2000/svg"
   xmlns:svg="http://www.w3.org/2000/svg"><sodipodi:namedview
     id="namedview1"
     inkscape:document-units="mm" /><defs
     id="defs1" /><g
     inkscape:label="Layer 1"
     inkscape:groupmode="layer"
     id="layer1"><g
       id="g11"
       transform="translate(-410.98349,-35.582986)"><path
         style="display:inline;"
         d="m 450.32415,138.57848 c -0.55017,-0.44956 -1.89348,-1.71742 -2.98514,-2.81746 -2.09479,-2.11089 -3.93538,-4.33507 -5.53561,-6.69683 -2.86949,-4.23504 -4.96615,-8.91246 -6.36987,-14.17234 -0.52311,-1.96013 -0.49697,-2.35092 0.17136,-2.56304 0.52747,-0.16741 0.88324,0.31457 1.25834,1.70472 1.30177,4.82441 3.76583,10.12074 6.60937,14.20637 2.09446,3.00936 5.13586,6.36371 8.43061,9.2981 0.48554,0.43243 0.6746,0.72358 0.6746,1.03886 0,1.10152 -0.90682,1.10217 -2.25366,0.002 z m 58.61439,0.39915 c -0.18094,-0.23003 -0.32898,-0.48641 -0.32898,-0.56974 0,-0.0833 1.18846,-1.30585 2.64102,-2.71669 1.45256,-1.41085 3.19408,-3.22747 3.87003,-4.03693 4.19363,-5.02189 7.3858,-11.10387 9.14154,-17.41714 0.21851,-0.78571 0.51401,-1.51786 0.65666,-1.62698 0.39315,-0.30077 0.79987,-0.23874 1.06247,0.16204 0.20926,0.31938 0.2088,0.46865 -0.004,1.30953 -2.10476,8.31597 -5.90814,15.2502 -11.65001,21.24001 -1.93481,2.01835 -4.32551,4.07413 -4.73787,4.07413 -0.17702,0 -0.46989,-0.1882 -0.65083,-0.41823 z m -48.43715,-2.48908 c -6.77653,-3.42929 -12.13966,-8.60323 -15.86873,-15.30897 -0.51906,-0.93338 -0.94374,-1.84512 -0.94374,-2.0261 0,-0.40551 0.28655,-0.71 0.66818,-0.71 0.30092,0 0.42216,0.15983 2.16747,2.85714 3.47321,5.36773 8.80707,10.37813 14.14615,13.2883 1.97618,1.07716 2.22455,1.27676 2.22455,1.78774 0,0.46114 -0.34852,0.79698 -0.82707,0.79698 -0.11716,0 -0.82222,-0.30829 -1.56681,-0.68509 z m 38.03152,0.42704 c -0.14193,-0.14193 -0.23631,-0.44263 -0.20975,-0.66823 0.0401,-0.3403 0.35927,-0.58747 1.8737,-1.45092 3.53565,-2.01585 6.3225,-4.11983 9.05392,-6.83541 2.47567,-2.46132 5.10956,-5.86829 6.65232,-8.60485 0.53973,-0.95738 0.88276,-1.12642 1.34591,-0.66327 0.37448,0.37448 0.31097,0.6575 -0.47833,2.13152 -2.93117,5.47397 -7.34279,10.26154 -12.63371,13.71034 -1.61418,1.05217 -4.65752,2.63887 -5.06145,2.63887 -0.15651,0 -0.40068,-0.11612 -0.54261,-0.25805 z m -27.17639,-2.04123 c -1.58477,-0.28747 -3.08145,-0.79169 -4.56282,-1.53716 -1.84265,-0.92729 -3.57017,-2.17436 -2.35988,-1.70356 1.6726,0.65064 4.39963,1.57959 7.19161,2.44982 l 3.25397,1.01421 -1.19048,-0.008 c -0.65476,-0.004 -1.70434,-0.1013 -2.3324,-0.21522 z m 17.01494,-0.39432 c 2.79071,-0.86752 5.73928,-1.85042 7.42905,-2.47645 1.60266,-0.59377 1.56967,-0.40638 -0.11312,0.64246 -2.32839,1.45121 -4.93619,2.26101 -7.71275,2.39502 l -1.66667,0.0804 z m -8.45902,-0.84266 c -0.18686,-0.19891 -0.3597,-0.57391 -0.38408,-0.83333 -0.0244,-0.25942 0.016,-8.86454 0.0897,-19.12247 0.12738,-17.719646 -0.0648,-53.884085 -0.31184,-58.69047 l -0.1,-1.944445 h -3.06203 -3.06204 l -0.41093,-0.488369 c -0.57495,-0.68329 -0.55511,-1.455375 0.053,-2.063523 l 0.46398,-0.463981 h 3.03705 3.03705 l -0.0487,-2.922136 c -0.046,-2.76118 -0.0303,-2.946972 0.28488,-3.373016 0.27622,-0.373399 0.46863,-0.458938 1.11967,-0.497777 0.63913,-0.03813 0.84389,0.01685 1.09504,0.294026 0.27971,0.308699 0.31355,0.63196 0.35802,3.419914 l 0.0491,3.078989 h 3.28858 c 3.65503,0 3.82623,0.04204 4.14854,1.018627 0.21312,0.645763 -0.0865,1.547316 -0.60672,1.82574 -0.19976,0.106907 -1.55002,0.171506 -3.58487,0.171506 -1.79542,0 -3.26933,0.01786 -3.27535,0.03968 -0.006,0.02182 -0.072,7.539683 -0.14661,16.706349 -0.082,10.070748 -0.0729,25.92325 0.023,40.056326 l 0.15864,23.38967 -0.35715,0.38017 c -0.48073,0.51171 -1.38428,0.52073 -1.85608,0.0185 z m 13.14311,-5.03363 -0.33515,-0.33514 0.12712,-7.49193 c 0.16322,-9.62 0.16323,-29.807926 1e-5,-39.427424 l -0.12711,-7.49106 0.40373,-0.264533 c 0.53095,-0.347892 1.13373,-0.190015 1.40503,0.368 0.17273,0.35529 0.1949,2.857579 0.12193,13.767541 -0.049,7.33334 -0.0456,19.404756 0.008,26.825386 0.0902,12.56124 0.0782,13.51944 -0.17443,13.88889 -0.35626,0.52108 -0.99626,0.59286 -1.42884,0.16027 z m -26.09953,-0.14576 c -0.25748,-0.28451 -0.27416,-1.9528 -0.27416,-27.41438 0,-25.715587 0.0144,-27.121952 0.2799,-27.316085 0.39136,-0.286167 0.91565,-0.254919 1.32822,0.07916 l 0.35052,0.283832 -0.17455,8.486009 c -0.22378,10.878828 -0.22364,25.980134 3.5e-4,36.971214 l 0.17616,8.64395 -0.3515,0.28463 c -0.45612,0.36934 -0.99074,0.362 -1.33494,-0.0183 z m -13.20935,-3.60269 c -3.10832,-3.14893 -5.85084,-7.4716 -7.2573,-11.43872 -0.35927,-1.01341 -0.3768,-1.16014 -0.16007,-1.34001 0.40852,-0.33904 0.65669,-0.009 1.62484,2.16056 1.55158,3.47708 4.05055,7.72414 6.23424,10.59524 0.5146,0.67659 0.89385,1.23016 0.84279,1.23016 -0.0511,0 -0.62909,-0.54325 -1.2845,-1.20723 z m 53.12687,0.16226 c 2.40745,-3.1807 4.85411,-7.34294 6.43026,-10.93916 0.88482,-2.01885 0.96237,-2.14286 1.33996,-2.14286 0.49085,0 0.45859,0.38103 -0.17426,2.05818 -1.36368,3.61402 -3.42722,6.90832 -6.40087,10.21856 -1.57686,1.75536 -2.26534,2.21926 -1.19509,0.80528 z m -30.6658,-2.20415 c -0.22972,-0.12835 -0.45987,-0.34329 -0.51142,-0.47764 -0.0516,-0.13435 -0.0279,-5.01151 0.0526,-10.83812 0.0805,-5.82662 0.11489,-11.736706 0.0764,-13.133526 -0.0385,-1.39682 -0.10455,-5.66969 -0.14688,-9.49526 l -0.077,-6.95559 0.38569,-0.385685 c 0.53577,-0.535772 1.38674,-0.524601 1.93677,0.02542 l 0.41111,0.411111 -0.10659,2.326984 c -0.43645,9.52845 -0.52477,21.503076 -0.23355,31.666256 0.17528,6.11729 0.17142,6.33318 -0.11853,6.62313 -0.41173,0.41173 -1.16136,0.51637 -1.66869,0.23292 z m 7.3914,-0.13227 -0.42494,-0.36552 0.20254,-8.0075 c 0.21612,-8.54486 0.1446,-19.674466 -0.17818,-27.725956 -0.16962,-4.230981 -0.16304,-4.674133 0.0748,-5.037167 0.51808,-0.79068 1.68242,-0.705988 2.18768,0.159128 0.26532,0.454296 0.27182,0.998325 0.11665,9.761039 -0.15335,8.660046 -0.11311,18.123866 0.11485,27.006906 l 0.0965,3.75875 -0.40792,0.40792 c -0.51592,0.51592 -1.21221,0.53248 -1.78197,0.0424 z m -11.26493,-0.57575 c -0.79339,-0.32999 -0.75515,0.6972 -0.75287,-20.22122 10e-4,-10.761476 0.0496,-19.716088 0.10775,-19.89913 0.13187,-0.415481 0.91215,-0.75278 1.4368,-0.621101 0.21753,0.0546 0.54273,0.257287 0.72266,0.45042 0.32392,0.347681 0.32592,0.417898 0.20281,7.101255 -0.13317,7.22937 -0.16261,20.116166 -0.0636,27.835716 0.0574,4.47316 0.0442,4.75272 -0.23809,5.02968 -0.36835,0.36144 -0.98603,0.50299 -1.41547,0.32438 z m 15.37827,-0.22965 -0.4386,-0.37726 0.0726,-5.37671 c 0.10875,-8.05398 0.0879,-18.449076 -0.0538,-26.765456 l -0.12639,-7.420508 0.39696,-0.396951 c 0.51748,-0.517488 1.08168,-0.502683 1.69403,0.04445 l 0.49402,0.441402 0.003,19.749233 0.003,19.74924 -0.42424,0.36491 c -0.54291,0.467 -1.06846,0.46299 -1.62107,-0.0123 z m 10.36646,-2.80608 -0.42176,-0.33176 V 101.45149 84.165095 l 0.40332,-0.26427 c 0.31941,-0.209281 0.4828,-0.228061 0.78526,-0.09025 0.9323,0.424779 0.883,-0.631058 0.83735,17.935985 -0.0366,14.87045 -0.0717,17.03154 -0.2799,17.22981 -0.43366,0.41291 -0.87814,0.44422 -1.32427,0.0933 z m -36.1563,-0.25372 c -0.18108,-0.21816 -0.2249,-3.13809 -0.25963,-17.29948 -0.0414,-16.890916 -0.039,-17.039756 0.27777,-17.356578 0.38251,-0.382506 0.91336,-0.410076 1.39536,-0.07247 l 0.35278,0.247092 v 17.122516 c 0,15.35428 -0.0258,17.14827 -0.24943,17.37195 -0.32836,0.32836 -1.23999,0.32053 -1.51685,-0.013 z m 45.1639,-2.13512 c -0.29207,-0.3227 -0.30382,-0.83112 -0.3445,-14.91819 -0.0417,-14.437926 -0.0389,-14.587306 0.27778,-14.903996 0.41827,-0.41827 1.02036,-0.40666 1.42482,0.0275 0.32084,0.34437 0.32365,0.47398 0.32365,14.920616 0,14.36161 -0.005,14.57786 -0.31746,14.89071 -0.41132,0.41132 -0.98327,0.40435 -1.36429,-0.0166 z m -54.19127,-0.1421 c -0.31286,-0.31286 -0.31746,-0.5291 -0.31746,-14.91505 0,-14.269746 0.007,-14.601266 0.30702,-14.761896 0.53196,-0.2847 1.23987,-0.1963 1.50938,0.18846 0.21923,0.313 0.24709,1.97633 0.24709,14.750376 v 14.39761 l -0.41823,0.32898 c -0.5259,0.41367 -0.92221,0.41711 -1.3278,0.0115 z m -11.49715,-3.06322 c -0.76473,-1.72571 -1.08166,-3.04264 -1.1346,-4.71456 -0.029,-0.91667 -0.0145,-1.52381 0.0323,-1.34921 0.23209,0.86668 1.47824,6.65037 1.44092,6.68768 -0.0237,0.0237 -0.17601,-0.2571 -0.33857,-0.62391 z m 78.06411,0.32512 c 0.0528,-0.19642 0.37711,-1.64285 0.72063,-3.21428 0.34351,-1.57143 0.65748,-3 0.6977,-3.17461 0.0402,-0.1746 0.0804,0.25397 0.0892,0.95239 0.0187,1.47946 -0.26602,2.84372 -0.95247,4.56349 -0.46918,1.17544 -0.75896,1.63122 -0.55505,0.87301 z m -16.971,-3.04834 -0.38961,-0.38961 v -8.47161 -8.471596 l 0.36737,-0.34513 c 0.47679,-0.44791 0.82601,-0.43602 1.30651,0.0445 l 0.38961,0.38961 v 8.487736 8.48776 l -0.41823,0.32898 c -0.54187,0.42624 -0.7803,0.41472 -1.25565,-0.0606 z m -44.89201,-0.0981 -0.41824,-0.32898 v -8.45594 c 0,-7.990376 0.016,-8.470386 0.29028,-8.718626 0.39374,-0.35633 1.07011,-0.33088 1.45576,0.0548 0.30946,0.30946 0.31746,0.5291 0.31746,8.718616 v 8.40118 l -0.41824,0.32898 c -0.23002,0.18094 -0.5061,0.32898 -0.61351,0.32898 -0.10741,0 -0.38349,-0.14804 -0.61351,-0.32898 z m 53.93093,-1.85599 c -0.50069,-0.33431 -0.53964,-0.85253 -0.53964,-7.18011 0,-7.189576 0.0159,-7.292586 1.12619,-7.299136 0.86488,-0.005 0.9373,0.28083 0.9373,3.70053 0,3.413166 -0.0216,3.346406 0.928,2.872696 0.45531,-0.22714 0.54584,-0.22714 1.00115,0 0.27532,0.13735 0.56103,0.24972 0.63492,0.24972 0.0739,0 0.13434,-0.78166 0.13434,-1.737026 0,-1.61506 0.0248,-1.75438 0.35278,-1.98412 0.4735,-0.33165 1.12642,-0.31218 1.44802,0.0432 0.20861,0.23051 0.2627,0.6265 0.2627,1.92326 v 1.632986 l 0.4365,-0.10919 c 0.94596,-0.23664 1.43488,-0.26897 1.53824,-0.10172 0.0591,0.0957 0.24613,0.1739 0.41558,0.1739 0.26218,0 0.30809,-0.11354 0.30809,-0.7619 0,-0.799566 0.19685,-1.142856 0.65533,-1.142856 0.47927,0 0.77324,0.4569 0.77324,1.201816 0,0.75574 0.16843,0.8656 0.70494,0.4598 0.16947,-0.12818 0.45938,-0.23305 0.64427,-0.23305 0.18488,0 0.4748,0.10487 0.64426,0.23305 0.46845,0.35432 0.52489,0.30437 0.5772,-0.51082 0.0422,-0.657256 0.097,-0.760836 0.42725,-0.807536 0.48346,-0.0684 0.64741,0.19875 0.65044,1.059736 l 0.002,0.68871 0.48837,-0.41093 c 0.2751,-0.23148 0.68569,-0.41094 0.94021,-0.41094 0.25451,0 0.66511,0.17946 0.9402,0.41094 l 0.48837,0.41093 v -0.77601 c 0,-0.841736 0.19461,-1.156966 0.71428,-1.156966 0.53127,0 0.71429,0.31947 0.71429,1.246826 0,0.82878 0.0124,0.85462 0.29027,0.60317 0.32013,-0.28971 1.06364,-0.35319 1.21767,-0.10397 0.30213,0.48886 0.39682,-0.0545 0.39682,-2.276976 0,-2.15809 0.0331,-2.46565 0.29028,-2.69841 0.38336,-0.34693 1.0247,-0.33385 1.35179,0.0276 0.21931,0.24234 0.26269,0.67486 0.26269,2.61904 0,1.30979 0.0638,2.328766 0.14587,2.328766 0.0802,0 0.36594,-0.125 0.63492,-0.27777 0.46577,-0.26455 0.51234,-0.26455 0.97811,0 0.69227,0.3932 0.78078,0.3555 0.78078,-0.33255 0,-0.603496 0.35918,-1.135706 0.76647,-1.135706 0.35208,0 0.82084,0.63452 0.82084,1.111106 v 0.47619 h 2.35635 c 2.08121,0 2.38702,0.0339 2.61905,0.29028 0.34143,0.37728 0.3326,0.70836 -0.0276,1.03433 -0.24234,0.21931 -0.67486,0.26269 -2.61905,0.26269 h -2.32877 v 0.53096 c 0,0.55354 -0.3909,1.05635 -0.82123,1.05635 -0.40449,0 -0.76608,-0.54907 -0.76608,-1.1633 0,-0.65982 -0.0924,-0.69593 -0.78078,-0.30496 -0.46577,0.26455 -0.51234,0.26455 -0.97811,0 -0.26898,-0.15278 -0.55469,-0.27778 -0.63492,-0.27778 -0.0822,0 -0.14587,1.03501 -0.14587,2.36962 0,2.60454 -0.0864,2.86848 -0.93912,2.86848 -0.8593,0 -0.96564,-0.32913 -0.96564,-2.98869 0,-2.19696 -0.0953,-2.73726 -0.39682,-2.24941 -0.15403,0.24923 -0.89754,0.18575 -1.21767,-0.10396 -0.27784,-0.25145 -0.29027,-0.22561 -0.29027,0.60317 0,0.92735 -0.18302,1.24683 -0.71429,1.24683 -0.50572,0 -0.71428,-0.31053 -0.71428,-1.0635 0,-0.7557 -0.1267,-0.83896 -0.55556,-0.36507 -0.18842,0.2082 -0.48888,0.31746 -0.87301,0.31746 -0.38414,0 -0.6846,-0.10926 -0.87302,-0.31746 -0.42172,-0.466 -0.55556,-0.39226 -0.55556,0.30612 0,0.77046 -0.35816,1.19678 -0.80467,0.95782 -0.23252,-0.12444 -0.30644,-0.33495 -0.30644,-0.8727 0,-0.76384 -0.0714,-0.82469 -0.54621,-0.46556 -0.16946,0.12817 -0.45938,0.23305 -0.64426,0.23305 -0.18489,0 -0.4748,-0.10488 -0.64427,-0.23305 -0.52507,-0.39715 -0.70494,-0.29453 -0.70494,0.40221 0,0.82849 -0.23545,1.25941 -0.68812,1.25941 -0.54408,0 -0.74045,-0.3031 -0.74045,-1.14286 0,-0.84655 -0.18946,-0.9571 -0.87286,-0.50932 -0.35249,0.23096 -0.42884,0.23096 -0.89181,0 -0.9078,-0.45287 -0.93374,-0.41427 -0.93374,1.38948 0,1.83887 -0.1606,2.16746 -1.05933,2.16746 -0.84145,0 -1.00417,-0.36856 -1.00417,-2.2744 0,-0.93162 -0.0656,-1.69386 -0.14586,-1.69386 -0.0802,0 -0.36594,0.125 -0.63492,0.27778 -0.46577,0.26455 -0.51235,0.26455 -0.97811,0 -0.95374,-0.54171 -0.93952,-0.5854 -0.93952,2.88549 0,2.66406 -0.0394,3.20263 -0.24943,3.4127 -0.25914,0.25914 -0.97093,0.3306 -1.27442,0.12795 z m -63.00717,-0.42686 c -0.38565,-0.38565 -0.38961,-0.41954 -0.38961,-3.33333 0,-1.6836 -0.0624,-2.94373 -0.14587,-2.94373 -0.0802,0 -0.36594,0.125 -0.63492,0.27778 -0.46577,0.26455 -0.51234,0.26455 -0.97811,0 -0.26898,-0.15278 -0.55469,-0.27778 -0.63492,-0.27778 -0.0802,0 -0.14587,0.77465 -0.14587,1.72144 0,1.92538 -0.15155,2.24682 -1.05932,2.24682 -0.83268,0 -1.00417,-0.37487 -1.00417,-2.19504 0,-1.77379 -0.0275,-1.81397 -0.93374,-1.3619 -0.46297,0.23096 -0.53932,0.23096 -0.89182,0 -0.68002,-0.44556 -0.85149,-0.33544 -0.90424,0.58075 -0.045,0.78193 -0.0755,0.83649 -0.49408,0.88448 -0.64459,0.0739 -0.9031,-0.21892 -0.9031,-1.02297 0,-0.74743 -0.16997,-0.85634 -0.70494,-0.4517 -0.39294,0.2972 -0.8956,0.2972 -1.28853,0 -0.48379,-0.36592 -0.58404,-0.29013 -0.51896,0.39233 0.0659,0.69052 -0.19085,0.9137 -0.82091,0.71373 -0.24656,-0.0782 -0.31746,-0.24016 -0.31746,-0.72498 0,-0.699 -0.13375,-0.77285 -0.55555,-0.30676 -0.18842,0.2082 -0.48889,0.31746 -0.87302,0.31746 -0.38413,0 -0.6846,-0.10926 -0.87301,-0.31746 -0.42886,-0.47389 -0.55556,-0.39063 -0.55556,0.36507 0,0.75297 -0.20856,1.0635 -0.71429,1.0635 -0.53126,0 -0.71428,-0.31948 -0.71428,-1.24683 0,-0.82878 -0.0124,-0.85462 -0.29028,-0.60317 -0.32012,0.28971 -1.06363,0.35319 -1.21766,0.10396 -0.30276,-0.48988 -0.39682,0.0566 -0.39682,2.30552 v 2.46425 l -0.40716,0.1548 c -0.61441,0.2336 -0.84016,0.19175 -1.26672,-0.23481 -0.37555,-0.37554 -0.38962,-0.46771 -0.38962,-2.55291 0,-1.18982 -0.0536,-2.1372 -0.11904,-2.1053 -0.0655,0.0319 -0.32296,0.15987 -0.57217,0.28437 -0.4017,0.20068 -0.50674,0.1956 -0.92556,-0.0448 -0.67634,-0.38817 -0.76418,-0.34677 -0.76418,0.36012 0,0.49819 -0.0836,0.68607 -0.39682,0.89127 -0.3676,0.24086 -0.42606,0.24086 -0.79365,0 -0.29734,-0.19483 -0.39683,-0.39838 -0.39683,-0.81191 v -0.5519 h -2.35635 c -2.08121,0 -2.38703,-0.0339 -2.61905,-0.29027 -0.34143,-0.37728 -0.33261,-0.70836 0.0276,-1.03433 0.24223,-0.21921 0.67419,-0.2627 2.60947,-0.2627 h 2.31919 l 0.0493,-0.59159 c 0.037,-0.444736 0.1474,-0.640246 0.4446,-0.787636 0.59652,-0.29584 1.02016,0.0493 1.08204,0.881546 0.0547,0.73612 0.12449,0.76994 0.79473,0.38527 0.41883,-0.24037 0.52386,-0.24545 0.92556,-0.0448 0.24922,0.12451 0.5067,0.25247 0.57217,0.28438 0.0655,0.0319 0.11905,-0.974916 0.11905,-2.237376 0,-1.64811 0.0562,-2.34201 0.1993,-2.46077 0.40468,-0.33586 1.06171,-0.39196 1.46852,-0.12541 0.39259,0.25724 0.39567,0.27778 0.39567,2.63654 0,2.168406 0.096,2.705266 0.39683,2.218556 0.15403,-0.24922 0.89753,-0.18574 1.21766,0.10397 0.27784,0.25145 0.29027,0.22561 0.29027,-0.60317 0,-0.927356 0.18303,-1.246826 0.71429,-1.246826 0.51967,0 0.71429,0.31523 0.71429,1.156966 v 0.77601 l 0.48837,-0.41093 c 0.27509,-0.23148 0.68569,-0.41094 0.9402,-0.41094 0.25451,0 0.66511,0.17946 0.9402,0.41094 l 0.48837,0.41093 v -0.72537 c 0,-0.636846 0.0473,-0.737246 0.3878,-0.822696 0.55848,-0.14017 0.72331,0.0275 0.72331,0.735566 0,0.68063 0.0789,0.73587 0.54621,0.38241 0.39294,-0.2972 0.89559,-0.2972 1.28853,0 0.55179,0.41735 0.70494,0.29841 0.70494,-0.54748 0,-0.723246 0.0359,-0.799636 0.4214,-0.896386 0.6416,-0.16103 0.9212,0.11087 0.97619,0.949296 0.0393,0.59996 0.10429,0.73771 0.34777,0.73771 0.16467,0 0.34777,-0.0782 0.40688,-0.1739 0.10336,-0.16725 0.59229,-0.13492 1.53824,0.10172 l 0.43651,0.10919 v -1.660566 c 0,-1.40714 0.0443,-1.70066 0.29027,-1.92326 0.3648,-0.33013 0.96202,-0.33669 1.42044,-0.0156 0.32801,0.22974 0.35278,0.36906 0.35278,1.98412 0,0.955366 0.0605,1.737026 0.13434,1.737026 0.0739,0 0.3596,-0.11237 0.63492,-0.24972 0.45532,-0.22714 0.54584,-0.22714 1.00116,0 0.27532,0.13735 0.56103,0.24972 0.63492,0.24972 0.0739,0 0.13434,-1.384106 0.13434,-3.075796 0,-3.33122 0.004,-3.34555 0.89408,-3.52364 0.32518,-0.065 0.57326,-0.005 0.81694,0.19747 l 0.34996,0.29087 0.0147,6.666656 0.0147,6.66667 -0.37061,0.19607 c -0.55324,0.29269 -0.89754,0.24381 -1.33021,-0.18886 z m 2.22181,-6.34578 c -0.19299,-0.29453 -0.21273,-0.46149 -0.0832,-0.70353 0.38644,-0.72207 1.44002,-0.52459 1.44002,0.2699 0,0.85306 -0.89466,1.13899 -1.35683,0.43363 z m 4.72191,0.19571 c -0.10476,-0.10476 -0.19048,-0.38796 -0.19048,-0.62934 0,-0.79449 1.05359,-0.99197 1.44002,-0.2699 0.36497,0.68194 -0.70025,1.44853 -1.24954,0.89924 z m 4.29287,0.007 c -0.28694,-0.28694 -0.24219,-0.83826 0.0926,-1.14128 0.38612,-0.34943 0.70953,-0.33131 1.06328,0.0596 0.43145,0.47675 0.15953,1.16891 -0.48419,1.23251 -0.26076,0.0258 -0.56304,-0.0421 -0.67174,-0.1508 z m 40.63492,0 c -0.28694,-0.28694 -0.24219,-0.83826 0.0927,-1.14128 0.38611,-0.34943 0.70953,-0.33131 1.06328,0.0596 0.43145,0.47675 0.15953,1.16891 -0.48419,1.23251 -0.26076,0.0258 -0.56304,-0.0421 -0.67174,-0.1508 z m 4.33647,-0.12276 c -0.55193,-0.60987 0.19207,-1.4931 0.96217,-1.14222 0.41684,0.18992 0.52484,0.91926 0.18627,1.25783 -0.28526,0.28525 -0.83582,0.22983 -1.14844,-0.11561 z m 4.58526,-0.0801 c -0.19299,-0.29453 -0.21273,-0.46149 -0.0832,-0.70353 0.38644,-0.72207 1.44002,-0.52459 1.44002,0.2699 0,0.85306 -0.89466,1.13899 -1.35683,0.43363 z M 440.0454,96.764754 c -0.0149,-0.67625 0.64417,-3.90893 1.16746,-5.72613 1.86715,-6.48387 5.44291,-12.36866 10.3291,-16.999032 1.97192,-1.868687 2.78689,-2.470675 3.15403,-2.329788 0.59215,0.227229 0.26083,0.788497 -1.4934,2.529895 -6.06348,6.019107 -10.00005,12.607005 -12.61323,21.108405 -0.29518,0.96032 -0.53997,1.59781 -0.54396,1.41665 z m 80.95764,0.0367 c -0.0261,-0.60926 -1.92488,-5.97938 -2.78353,-7.87232 -2.55176,-5.625478 -5.79922,-10.286429 -10.23473,-14.689475 -0.9659,-0.958829 -1.75618,-1.860797 -1.75618,-2.004374 0,-0.143577 0.10778,-0.350498 0.23951,-0.459823 0.32889,-0.272953 1.1081,0.283088 3.21728,2.295825 5.90669,5.636628 9.89585,13.120007 11.23379,21.073797 0.14276,0.84868 0.22285,1.63439 0.17798,1.74603 -0.0487,0.12123 -0.0866,0.0851 -0.0941,-0.0897 z m -86.13472,-2.08496 c -0.26737,-0.26736 -0.36816,-0.50901 -0.3145,-0.75397 1.88101,-8.58525 4.92765,-15.003627 10.07637,-21.227941 1.52203,-1.839981 4.84256,-5.105415 6.67778,-6.566958 4.77566,-3.803282 10.46828,-6.768346 16.19047,-8.432996 l 1.98413,-0.577204 0.35714,0.413694 c 0.7328,0.848826 0.30193,1.334959 -1.67309,1.887678 -5.2668,1.473943 -11.25967,4.573659 -15.66818,8.104119 -4.90548,3.928451 -9.30433,9.364279 -12.14446,15.007369 -1.51979,3.019689 -3.20453,7.870489 -3.8039,10.952389 -0.29593,1.52162 -0.91471,1.96087 -1.68176,1.19382 z m 90.35281,0.19276 c -0.17823,-0.13033 -0.4644,-0.97929 -0.81596,-2.42064 -3.07312,-12.59942 -10.78235,-22.836798 -21.90672,-29.090768 -2.94642,-1.656433 -7.52281,-3.51981 -10.20638,-4.155745 -1.26328,-0.299362 -1.63552,-1.097373 -0.84542,-1.812404 0.27027,-0.244587 0.41726,-0.224639 2.23303,0.303033 15.94908,4.634903 28.47229,17.711725 32.38346,33.815064 0.27442,1.12983 0.53279,2.21646 0.57416,2.41473 0.0505,0.24209 -0.054,0.48974 -0.31825,0.75397 -0.44138,0.44139 -0.69662,0.4862 -1.09792,0.19276 z m -78.64892,-3.8154 c -0.41741,-0.50295 1.49612,-4.83135 3.38221,-7.650553 1.17198,-1.751805 3.66563,-4.719968 4.10802,-4.889728 0.12999,-0.04988 -0.26576,0.601329 -0.87944,1.447135 -1.99459,2.749018 -4.26191,6.885386 -5.49782,10.029896 -0.46766,1.18987 -0.76898,1.47773 -1.11297,1.06325 z m 67.32417,-0.0712 c -1.24026,-3.44382 -3.84982,-8.288201 -6.09806,-11.320396 -0.52611,-0.709564 -0.92567,-1.321012 -0.88791,-1.358771 0.19903,-0.19903 3.20348,3.376222 4.509,5.365653 1.60288,2.442554 3.51544,6.737814 3.27692,7.359374 -0.12378,0.32258 -0.67872,0.29076 -0.79995,-0.0459 z M 432.25326,78.348842 c 1.05927,-3.822495 3.05262,-7.558812 5.32692,-9.984716 l 0.89286,-0.952381 -0.46661,0.873016 c -0.25663,0.480158 -1.66411,3.123016 -3.12772,5.873016 -1.46362,2.75 -2.72211,5.067038 -2.79665,5.148974 -0.0745,0.08194 0.002,-0.349123 0.1712,-0.957909 z m 94.04672,-4.230748 c -1.54857,-2.902778 -2.98994,-5.599206 -3.20303,-5.992063 l -0.38744,-0.714286 0.90131,0.952381 c 1.66966,1.764284 3.569,4.929861 4.57141,7.619047 0.42822,1.148822 1.08342,3.412699 0.98768,3.412699 -0.0299,0 -1.32135,-2.375 -2.86993,-5.277778 z m -60.9556,-3.69416 c 0.54758,-0.414255 2.99248,-1.611316 4.45565,-2.181559 1.84616,-0.719503 2.93072,-0.947101 4.20635,-0.88271 l 1.03175,0.05208 -0.71429,0.421417 c -0.80103,0.472597 -3.05198,1.22058 -6.57405,2.184535 -2.58091,0.706371 -2.86573,0.754472 -2.40541,0.406237 z m 27.63026,-0.534155 c -3.69614,-1.036504 -5.27031,-1.56704 -6.11111,-2.059594 l -0.71429,-0.41844 1.03175,-0.05208 c 1.24581,-0.06289 2.32952,0.159796 4.13995,0.850679 2.1374,0.815665 5.27657,2.458566 4.66957,2.443847 -0.1746,-0.0042 -1.53175,-0.348219 -3.01587,-0.764412 z m -34.49207,0.109267 c -0.4451,-0.445098 -0.22535,-0.871854 1.04112,-1.650089 5.69486,-3.49945 8.71288,-4.622559 13.9851,-5.536813 1.3921,-0.241403 1.50555,-0.240579 1.78572,0.01297 0.71255,0.644848 0.2842,1.002061 -1.61897,1.35013 -4.90394,0.896871 -9.63818,2.736547 -13.63489,5.298375 -1.2233,0.784115 -1.2802,0.803303 -1.55808,0.525425 z m 42.5873,-0.560973 c -3.68013,-2.415625 -8.64586,-4.36945 -13.18902,-5.189376 -0.77778,-0.140371 -1.5701,-0.289847 -1.76071,-0.332169 -0.48155,-0.10692 -0.62519,-0.656399 -0.27326,-1.045283 0.32858,-0.363068 0.65519,-0.337696 3.55337,0.276058 2.05952,0.436149 4.23036,1.13372 6.24451,1.976204 2.01082,0.841089 3.99063,1.812015 5.78226,3.053329 0.59609,0.412991 1.62698,1.143019 1.62698,1.444251 0,0 -0.27839,0.581782 -0.68758,0.557376 -0.10199,-0.0061 -0.68543,-0.339259 -1.29655,-0.74039 z m -57.28486,-8.857675 c -0.14015,-0.140151 -0.25482,-0.379206 -0.25482,-0.531232 0,-0.293054 3.01125,-3.351707 3.29976,-3.351707 0.36243,0 0.69246,0.517837 0.59006,0.925835 -0.19502,0.777016 -1.09427,1.892726 -2.06442,2.561345 -0.88086,0.60708 -1.26297,0.703366 -1.57058,0.395759 z m 72.67138,-0.0033 c -1.12338,-0.554372 -2.45422,-2.018289 -2.69044,-2.959471 -0.10098,-0.402319 0.23189,-0.920202 0.59147,-0.920202 0.0933,0 0.8739,0.691942 1.73469,1.537648 1.62234,1.593921 1.88064,2.091817 1.25804,2.425021 -0.37459,0.200477 -0.30652,0.206799 -0.89376,-0.083 z M 453.054,52.734434 c 0.93741,-0.826715 3.49524,-2.481815 5,-3.235354 1.64452,-0.823527 3.89404,-1.738273 4.00408,-1.628225 0.11825,0.118248 -1.94208,1.580013 -3.72771,2.644741 -1.52843,0.911367 -4.54925,2.356299 -5.4351,2.59974 -0.35979,0.09888 -0.34498,0.06333 0.15873,-0.380902 z m 53.55946,-0.310913 c -0.96691,-0.4204 -2.46691,-1.169382 -3.33334,-1.664403 -1.60373,-0.91627 -4.26612,-2.772983 -4.14702,-2.892082 0.11138,-0.111379 2.55774,0.876574 4.02706,1.626311 2.076,1.059305 5.91886,3.704809 5.37003,3.696843 -0.0873,-0.0013 -0.94983,-0.346268 -1.91673,-0.766669 z"
         id="path1"
         inkscape:label="raw"
         sodipodi:nodetypes="cssssssssccssssssscssssssssssssssssssssssscsssccccsssscscscscccsscccssssscssssssccsccccsscssscsccsssscsscsssssssssssssssscsssscsscsssccccsssssscsscsccsssssssccsscsscccsccccccssssscsssscssssssssscsssscsscssssscssssssssssccccsscccsscccsssscsssccscsssssssscsssssssssssccssscssssssssssssssscsssscsssssssssssssssssssssssssssssssssssscccssssssssssssssssssssssssssscsssssssssscssssccsssssssssssssscssscssssssssssscssssssssscccccsccssssssssscsssccssssssssssssssssssssssssssssssssscssscssssssssssssssssssssssssssssscscssscsscssssssscssssscsssssssssssssssssaassssssssssssssssssssssssssss" /><path
         style="fill:#000000;stroke-width:0;stroke-dasharray:none"
         d="m 455.81101,144.40988 c 5.4893,3.25315 14.3771,4.83536 21.21288,4.82579 2.021,-0.003 5.12273,0.12769 5.88421,0.004 3.12134,-0.0488 6.75849,-0.25351 9.57009,-0.77319 2.84537,-0.52592 5.45338,-1.05535 8.25864,-1.7523 0.93937,-0.23338 1.95957,-0.58546 2.89248,-1.02614 0.58193,-0.27488 1.35323,-0.55146 1.81506,-0.87243 1.23461,-0.53616 1.10014,-1.78289 0.96816,-1.98088 -0.14856,-0.22287 -0.51654,-0.34635 -1.13434,-0.31751 -0.26813,0.0125 -0.4629,0.0794 -0.68885,0.1608 -2.82222,1.01684 -4.43876,1.81978 -6.78641,2.39317 -3.24792,0.79328 -6.97373,1.58701 -12.15128,1.82481 -0.45285,0.0517 -7.65054,0.24357 -8.93238,0.0929 -1.29329,0.0413 -2.56767,-0.13644 -3.73747,-0.22685 -3.45021,-0.26667 -6.70715,-0.76223 -11.54185,-2.4569 -1.58415,-0.55528 -3.10087,-1.69155 -5.1397,-1.95558 -0.19,-0.0517 -0.31116,0.004 -0.47931,0.0836 -0.444,0.21098 -0.63341,0.50486 -0.71333,0.77543 -0.1141,0.38632 0.0708,0.77203 0.70333,1.20121 z"
         id="path10"
         sodipodi:nodetypes="cscssscssssccssssscc" /><path
         style="stroke-width:0;stroke-dasharray:none"
         d="m 467.86639,140.32669 9.85262,1.0655 c 0.47751,0.0415 0.89646,0.0279 1.18469,0.0588 l 3.7392,-8.5e-4 c 0.37395,-0.0289 0.60992,-0.0645 0.73937,-0.0541 l 10.32487,-1.44461 c 0.85693,-0.56253 1.12953,-1.07882 -0.15051,-1.5371 l -11.32127,1.28214 h -3.38474 l -10.76184,-1.0933 c -1.391,0.54223 -1.08095,0.99693 -0.22239,1.72355 z"
         id="path11"
         sodipodi:nodetypes="cccccccccccc" /></g></g></svg>
